<?xml version="1.0" encoding="UTF-8" standalone="no"?>
<!-- Uploaded to: SVG Repo, www.svgrepo.com, Generator: SVG Repo Mixer Tools -->

<svg
   fill="#000000"
   width="800px"
   height="800px"
   viewBox="0 0 24 24"
   role="img"
   version="1.1"
   id="svg4"
   sodipodi:docname="kofi-svgrepo-com.svg"
   inkscape:version="1.1.2 (0a00cf5339, 2022-02-04)"
   xmlns:inkscape="http://www.inkscape.org/namespaces/inkscape"
   xmlns:sodipodi="http://sodipodi.sourceforge.net/DTD/sodipodi-0.dtd"
   xmlns="http://www.w3.org/2000/svg"
   xmlns:svg="http://www.w3.org/2000/svg">
  <defs
     id="defs8" />
  <sodipodi:namedview
     id="namedview6"
     pagecolor="#ffffff"
     bordercolor="#666666"
     borderopacity="1.0"
     inkscape:pageshadow="2"
     inkscape:pageopacity="0.0"
     inkscape:pagecheckerboard="0"
     showgrid="false"
     inkscape:zoom="0.74004995"
     inkscape:cx="509.42507"
     inkscape:cy="460.77971"
     inkscape:window-width="1920"
     inkscape:window-height="1011"
     inkscape:window-x="1920"
     inkscape:window-y="32"
     inkscape:window-maximized="1"
     inkscape:current-layer="svg4" />
  <path
     d="M23.881 8.948c-.773-4.085-4.859-4.593-4.859-4.593H.723c-.604 0-.679.798-.679.798s-.082 7.324-.022 11.822c.164 2.424 2.586 2.672 2.586 2.672s8.267-.023 11.966-.049c2.438-.426 2.683-2.566 2.658-3.734 4.352.24 7.422-2.831 6.649-6.916zm-11.062 3.511c-1.246 1.453-4.011 3.976-4.011 3.976s-.121.119-.31.023c-.076-.057-.108-.09-.108-.09-.443-.441-3.368-3.049-4.034-3.954-.709-.965-1.041-2.7-.091-3.71.951-1.01 3.005-1.086 4.363.407 0 0 1.565-1.782 3.468-.963 1.904.82 1.832 3.011.723 4.311zm6.173.478c-.928.116-1.682.028-1.682.028V7.284h1.77s1.971.551 1.971 2.638c0 1.913-.985 2.667-2.059 3.015z"
     id="path2"
     style="fill:#ffffff" />
</svg>
