<?xml version="1.0" encoding="UTF-8" standalone="no"?>
<!-- Uploaded to: SVG Repo, www.svgrepo.com, Generator: SVG Repo Mixer Tools -->

<svg
   width="800px"
   height="800px"
   viewBox="0 -4 48 48"
   version="1.1"
   id="svg11"
   sodipodi:docname="reddit-color-svgrepo-com.svg"
   inkscape:version="1.1.2 (0a00cf5339, 2022-02-04)"
   xmlns:inkscape="http://www.inkscape.org/namespaces/inkscape"
   xmlns:sodipodi="http://sodipodi.sourceforge.net/DTD/sodipodi-0.dtd"
   xmlns="http://www.w3.org/2000/svg"
   xmlns:svg="http://www.w3.org/2000/svg">
  <sodipodi:namedview
     id="namedview13"
     pagecolor="#505050"
     bordercolor="#eeeeee"
     borderopacity="1"
     inkscape:pageshadow="0"
     inkscape:pageopacity="0"
     inkscape:pagecheckerboard="0"
     showgrid="false"
     inkscape:zoom="1.04875"
     inkscape:cx="397.61621"
     inkscape:cy="399.52324"
     inkscape:window-width="1920"
     inkscape:window-height="1043"
     inkscape:window-x="0"
     inkscape:window-y="0"
     inkscape:window-maximized="1"
     inkscape:current-layer="Color-" />
  <title
     id="title2">Reddit-color</title>
  <desc
     id="desc4">Created with Sketch.</desc>
  <defs
     id="defs6" />
  <g
     id="Icons"
     stroke="none"
     stroke-width="1"
     fill="none"
     fill-rule="evenodd">
    <g
       id="Color-"
       transform="translate(-800,-566)"
       fill="#ff5700">
      <path
         d="m 831.14,592.3258 c -1.794,0 -3.3015,-1.44173 -3.3015,-3.21938 0,-1.77765 1.5075,-3.26694 3.3015,-3.26694 1.794,0 3.249,1.48929 3.249,3.26694 0,1.77765 -1.455,3.21938 -3.249,3.21938 m 0.762,6.24852 c -1.671,1.65428 -4.248,2.45838 -7.878,2.45838 -0.008,0 -0.0165,-10e-4 -0.0255,-10e-4 -0.008,0 -0.0165,10e-4 -0.0255,10e-4 -3.63,0 -6.2055,-0.8041 -7.875,-2.45838 -0.513,-0.50833 -0.513,-1.33027 0,-1.8371 0.5115,-0.50684 1.341,-0.50684 1.854,0 1.152,1.1415 3.1215,1.69738 6.021,1.69738 0.009,0 0.018,10e-4 0.0255,10e-4 0.009,0 0.018,-10e-4 0.0255,-10e-4 2.8995,0 4.8705,-0.55588 6.024,-1.69738 0.513,-0.50833 1.3425,-0.50684 1.854,0 0.5115,0.50832 0.5115,1.33026 0,1.8371 m -18.291,-9.4679 c 0,-1.77616 1.5045,-3.26694 3.297,-3.26694 1.794,0 3.249,1.49078 3.249,3.26694 0,1.77765 -1.455,3.21938 -3.249,3.21938 -1.7925,0 -3.297,-1.44173 -3.297,-3.21938 m 26.385,-20.50832 c 1.215,0 2.2035,0.97949 2.2035,2.18192 0,1.20393 -0.9885,2.18342 -2.2035,2.18342 -1.215,0 -2.2035,-0.97949 -2.2035,-2.18342 0,-1.20243 0.9885,-2.18192 2.2035,-2.18192 M 848,585.57045 c 0,-3.1525 -2.5875,-5.71641 -5.769,-5.71641 -1.377,0 -2.6415,0.48157 -3.6345,1.2827 -3.5175,-2.19084 -7.9815,-3.5107 -12.7665,-3.79013 l 2.496,-7.81956 6.8595,1.60077 c 0.18,2.47474 2.268,4.43371 4.8105,4.43371 2.6595,0 4.824,-2.14476 4.824,-4.78151 0,-2.63525 -2.1645,-4.78002 -4.824,-4.78002 -1.86,0 -3.477,1.04935 -4.2825,2.58175 l -7.971,-1.8594 c -0.6675,-0.15606 -1.3425,0.22444 -1.5495,0.87248 l -3.099,9.7057 c -5.1555,0.12486 -10.002,1.44917 -13.7775,3.76784 -0.9795,-0.75951 -2.211,-1.21433 -3.5475,-1.21433 -3.1815,0 -5.769,2.56391 -5.769,5.71641 0,1.94858 0.99,3.67123 2.4975,4.70274 -0.063,0.45333 -0.096,0.90963 -0.096,1.37188 0,3.94025 2.3115,7.60552 6.5085,10.31955 4.023,2.60256 9.348,4.03538 14.9925,4.03538 5.6445,0 10.9695,-1.43282 14.9925,-4.03538 4.197,-2.71403 6.5085,-6.3793 6.5085,-10.31955 0,-0.42064 -0.0285,-0.83829 -0.081,-1.25298 1.608,-1.01516 2.6775,-2.79726 2.6775,-4.82164"
         id="Reddit"
         inkscape:label="Reddit"
         style="fill:#ffffff;fill-opacity:1" />
    </g>
  </g>
</svg>
